<mxfile host="app.diagrams.net" modified="2025-01-26T09:43:24.353Z" agent="Mozilla/5.0 (X11; Ubuntu; Linux x86_64; rv:134.0) Gecko/20100101 Firefox/134.0" etag="QgCR6oK5MWxFa9h0qGhB" version="24.4.0" type="device">
  <diagram name="Page-1" id="gFCGRAhAeQDkRMjODYnL">
    <mxGraphModel dx="1604" dy="915" grid="1" gridSize="10" guides="1" tooltips="1" connect="1" arrows="1" fold="1" page="1" pageScale="1" pageWidth="2336" pageHeight="1654" math="0" shadow="0">
      <root>
        <mxCell id="0" />
        <mxCell id="1" parent="0" />
        <mxCell id="C5PfE8BQ1fMyhlP3B-Qq-1" value="&lt;font style=&quot;font-size: 18px;&quot;&gt;Keyboard Visualizer&lt;/font&gt;" style="rounded=0;whiteSpace=wrap;html=1;fillColor=#CCE5FF;" vertex="1" parent="1">
          <mxGeometry x="270" y="160" width="120" height="60" as="geometry" />
        </mxCell>
        <mxCell id="C5PfE8BQ1fMyhlP3B-Qq-12" value="&lt;font style=&quot;font-size: 14px;&quot;&gt;Pressed keys&lt;/font&gt;" style="edgeStyle=orthogonalEdgeStyle;rounded=0;orthogonalLoop=1;jettySize=auto;html=1;" edge="1" parent="1" source="C5PfE8BQ1fMyhlP3B-Qq-2" target="C5PfE8BQ1fMyhlP3B-Qq-1">
          <mxGeometry x="-0.2" y="50" relative="1" as="geometry">
            <mxPoint as="offset" />
          </mxGeometry>
        </mxCell>
        <mxCell id="C5PfE8BQ1fMyhlP3B-Qq-27" style="edgeStyle=orthogonalEdgeStyle;rounded=0;orthogonalLoop=1;jettySize=auto;html=1;exitX=1;exitY=0.5;exitDx=0;exitDy=0;entryX=0;entryY=0.5;entryDx=0;entryDy=0;" edge="1" parent="1" source="C5PfE8BQ1fMyhlP3B-Qq-2" target="C5PfE8BQ1fMyhlP3B-Qq-5">
          <mxGeometry relative="1" as="geometry" />
        </mxCell>
        <mxCell id="C5PfE8BQ1fMyhlP3B-Qq-28" value="&lt;font style=&quot;font-size: 14px;&quot;&gt;Settings&lt;/font&gt;" style="edgeLabel;html=1;align=center;verticalAlign=middle;resizable=0;points=[];" vertex="1" connectable="0" parent="C5PfE8BQ1fMyhlP3B-Qq-27">
          <mxGeometry x="-0.1889" y="-3" relative="1" as="geometry">
            <mxPoint x="37" y="-13" as="offset" />
          </mxGeometry>
        </mxCell>
        <mxCell id="C5PfE8BQ1fMyhlP3B-Qq-2" value="&lt;font style=&quot;font-size: 18px;&quot;&gt;Main Window&lt;/font&gt;" style="rounded=0;whiteSpace=wrap;html=1;fillColor=#CCE5FF;" vertex="1" parent="1">
          <mxGeometry x="270" y="270" width="120" height="60" as="geometry" />
        </mxCell>
        <mxCell id="C5PfE8BQ1fMyhlP3B-Qq-20" value="" style="edgeStyle=orthogonalEdgeStyle;rounded=0;orthogonalLoop=1;jettySize=auto;html=1;" edge="1" parent="1" source="C5PfE8BQ1fMyhlP3B-Qq-3" target="C5PfE8BQ1fMyhlP3B-Qq-2">
          <mxGeometry relative="1" as="geometry" />
        </mxCell>
        <mxCell id="C5PfE8BQ1fMyhlP3B-Qq-21" value="&lt;font style=&quot;font-size: 14px;&quot;&gt;Settings&lt;/font&gt;" style="edgeLabel;html=1;align=center;verticalAlign=middle;resizable=0;points=[];" vertex="1" connectable="0" parent="C5PfE8BQ1fMyhlP3B-Qq-20">
          <mxGeometry x="-0.4" relative="1" as="geometry">
            <mxPoint x="-30" y="-5" as="offset" />
          </mxGeometry>
        </mxCell>
        <mxCell id="C5PfE8BQ1fMyhlP3B-Qq-3" value="&lt;font style=&quot;font-size: 18px;&quot;&gt;Control Panel&lt;/font&gt;" style="rounded=0;whiteSpace=wrap;html=1;fillColor=#CCE5FF;" vertex="1" parent="1">
          <mxGeometry x="270" y="380" width="120" height="60" as="geometry" />
        </mxCell>
        <mxCell id="C5PfE8BQ1fMyhlP3B-Qq-23" style="edgeStyle=orthogonalEdgeStyle;rounded=0;orthogonalLoop=1;jettySize=auto;html=1;exitX=1;exitY=0.5;exitDx=0;exitDy=0;entryX=0;entryY=0.5;entryDx=0;entryDy=0;" edge="1" parent="1" source="C5PfE8BQ1fMyhlP3B-Qq-4" target="C5PfE8BQ1fMyhlP3B-Qq-7">
          <mxGeometry relative="1" as="geometry" />
        </mxCell>
        <mxCell id="C5PfE8BQ1fMyhlP3B-Qq-24" value="&lt;div&gt;&lt;font style=&quot;font-size: 14px;&quot;&gt;Metronome Note&lt;/font&gt;&lt;/div&gt;&lt;div&gt;&lt;font style=&quot;font-size: 14px;&quot;&gt;Commands&lt;/font&gt;&lt;/div&gt;" style="edgeLabel;html=1;align=center;verticalAlign=middle;resizable=0;points=[];" vertex="1" connectable="0" parent="C5PfE8BQ1fMyhlP3B-Qq-23">
          <mxGeometry x="0.1" y="2" relative="1" as="geometry">
            <mxPoint x="-9" y="-18" as="offset" />
          </mxGeometry>
        </mxCell>
        <mxCell id="C5PfE8BQ1fMyhlP3B-Qq-4" value="&lt;font style=&quot;font-size: 18px;&quot;&gt;Clock&lt;/font&gt;" style="rounded=0;whiteSpace=wrap;html=1;" vertex="1" parent="1">
          <mxGeometry x="570" y="160" width="120" height="60" as="geometry" />
        </mxCell>
        <mxCell id="C5PfE8BQ1fMyhlP3B-Qq-16" value="" style="edgeStyle=orthogonalEdgeStyle;rounded=0;orthogonalLoop=1;jettySize=auto;html=1;" edge="1" parent="1" source="C5PfE8BQ1fMyhlP3B-Qq-5" target="C5PfE8BQ1fMyhlP3B-Qq-4">
          <mxGeometry relative="1" as="geometry" />
        </mxCell>
        <mxCell id="C5PfE8BQ1fMyhlP3B-Qq-17" value="&lt;font style=&quot;font-size: 14px;&quot;&gt;Note Schedule&lt;/font&gt;" style="edgeLabel;html=1;align=center;verticalAlign=middle;resizable=0;points=[];" vertex="1" connectable="0" parent="C5PfE8BQ1fMyhlP3B-Qq-16">
          <mxGeometry x="-0.08" y="-1" relative="1" as="geometry">
            <mxPoint x="49" as="offset" />
          </mxGeometry>
        </mxCell>
        <mxCell id="C5PfE8BQ1fMyhlP3B-Qq-26" style="edgeStyle=orthogonalEdgeStyle;rounded=0;orthogonalLoop=1;jettySize=auto;html=1;exitX=1;exitY=0.5;exitDx=0;exitDy=0;entryX=0;entryY=0.5;entryDx=0;entryDy=0;" edge="1" parent="1" source="C5PfE8BQ1fMyhlP3B-Qq-5" target="C5PfE8BQ1fMyhlP3B-Qq-8">
          <mxGeometry relative="1" as="geometry" />
        </mxCell>
        <mxCell id="C5PfE8BQ1fMyhlP3B-Qq-33" value="&lt;div&gt;&lt;font style=&quot;font-size: 14px;&quot;&gt;Notes in&amp;nbsp;&lt;/font&gt;&lt;/div&gt;&lt;div&gt;&lt;font style=&quot;font-size: 14px;&quot;&gt;RECORD mode,&amp;nbsp;&lt;/font&gt;&lt;/div&gt;&lt;div&gt;&lt;font style=&quot;font-size: 14px;&quot;&gt;instrument settings&lt;/font&gt;&lt;/div&gt;" style="edgeLabel;html=1;align=center;verticalAlign=middle;resizable=0;points=[];" vertex="1" connectable="0" parent="C5PfE8BQ1fMyhlP3B-Qq-26">
          <mxGeometry x="-0.1556" y="-1" relative="1" as="geometry">
            <mxPoint x="34" y="29" as="offset" />
          </mxGeometry>
        </mxCell>
        <mxCell id="C5PfE8BQ1fMyhlP3B-Qq-5" value="&lt;font style=&quot;font-size: 18px;&quot;&gt;Looper&lt;/font&gt;" style="rounded=0;whiteSpace=wrap;html=1;" vertex="1" parent="1">
          <mxGeometry x="570" y="270" width="120" height="60" as="geometry" />
        </mxCell>
        <mxCell id="C5PfE8BQ1fMyhlP3B-Qq-6" value="&lt;font style=&quot;font-size: 18px;&quot;&gt;Looper GUI&lt;/font&gt;" style="rounded=0;whiteSpace=wrap;html=1;fillColor=#CCE5FF;" vertex="1" parent="1">
          <mxGeometry x="570" y="380" width="120" height="60" as="geometry" />
        </mxCell>
        <mxCell id="C5PfE8BQ1fMyhlP3B-Qq-7" value="&lt;font style=&quot;font-size: 18px;&quot;&gt;Metronome Synth&lt;/font&gt;" style="rounded=0;whiteSpace=wrap;html=1;fillColor=#FFF2CC;" vertex="1" parent="1">
          <mxGeometry x="870" y="160" width="120" height="60" as="geometry" />
        </mxCell>
        <mxCell id="C5PfE8BQ1fMyhlP3B-Qq-8" value="&lt;div&gt;&lt;font style=&quot;font-size: 18px;&quot;&gt;Looper Synth&lt;/font&gt;&lt;/div&gt;" style="rounded=0;whiteSpace=wrap;html=1;fillColor=#FFF2CC;" vertex="1" parent="1">
          <mxGeometry x="870" y="270" width="120" height="60" as="geometry" />
        </mxCell>
        <mxCell id="C5PfE8BQ1fMyhlP3B-Qq-14" value="" style="endArrow=classic;startArrow=classic;html=1;rounded=0;exitX=0.5;exitY=0;exitDx=0;exitDy=0;entryX=0.5;entryY=1;entryDx=0;entryDy=0;" edge="1" parent="1" source="C5PfE8BQ1fMyhlP3B-Qq-6" target="C5PfE8BQ1fMyhlP3B-Qq-5">
          <mxGeometry width="50" height="50" relative="1" as="geometry">
            <mxPoint x="790" y="500" as="sourcePoint" />
            <mxPoint x="840" y="450" as="targetPoint" />
          </mxGeometry>
        </mxCell>
        <mxCell id="C5PfE8BQ1fMyhlP3B-Qq-15" value="&lt;div&gt;&lt;font style=&quot;font-size: 14px;&quot;&gt;Looper&lt;/font&gt;&lt;/div&gt;&lt;div&gt;&lt;font style=&quot;font-size: 14px;&quot;&gt;settings&lt;/font&gt;&lt;/div&gt;" style="edgeLabel;html=1;align=center;verticalAlign=middle;resizable=0;points=[];" vertex="1" connectable="0" parent="C5PfE8BQ1fMyhlP3B-Qq-14">
          <mxGeometry x="-0.16" y="-2" relative="1" as="geometry">
            <mxPoint x="-52" y="-9" as="offset" />
          </mxGeometry>
        </mxCell>
        <mxCell id="C5PfE8BQ1fMyhlP3B-Qq-29" value="" style="endArrow=classic;html=1;rounded=0;exitX=1;exitY=0.5;exitDx=0;exitDy=0;entryX=0;entryY=0.5;entryDx=0;entryDy=0;" edge="1" parent="1" source="C5PfE8BQ1fMyhlP3B-Qq-2" target="C5PfE8BQ1fMyhlP3B-Qq-4">
          <mxGeometry width="50" height="50" relative="1" as="geometry">
            <mxPoint x="790" y="500" as="sourcePoint" />
            <mxPoint x="840" y="450" as="targetPoint" />
          </mxGeometry>
        </mxCell>
        <mxCell id="C5PfE8BQ1fMyhlP3B-Qq-31" value="" style="endArrow=classic;html=1;rounded=0;exitX=1;exitY=0.5;exitDx=0;exitDy=0;entryX=0;entryY=0.5;entryDx=0;entryDy=0;" edge="1" parent="1" source="C5PfE8BQ1fMyhlP3B-Qq-4" target="C5PfE8BQ1fMyhlP3B-Qq-8">
          <mxGeometry width="50" height="50" relative="1" as="geometry">
            <mxPoint x="400" y="310" as="sourcePoint" />
            <mxPoint x="580" y="420" as="targetPoint" />
          </mxGeometry>
        </mxCell>
        <mxCell id="C5PfE8BQ1fMyhlP3B-Qq-32" value="&lt;div&gt;&lt;font style=&quot;font-size: 14px;&quot;&gt;Notes in&amp;nbsp;&lt;/font&gt;&lt;/div&gt;&lt;div&gt;&lt;font style=&quot;font-size: 14px;&quot;&gt;PLAY mode&lt;/font&gt;&lt;/div&gt;" style="edgeLabel;html=1;align=center;verticalAlign=middle;resizable=0;points=[];" vertex="1" connectable="0" parent="C5PfE8BQ1fMyhlP3B-Qq-31">
          <mxGeometry x="-0.0634" y="-1" relative="1" as="geometry">
            <mxPoint x="46" y="-12" as="offset" />
          </mxGeometry>
        </mxCell>
        <mxCell id="C5PfE8BQ1fMyhlP3B-Qq-35" value="&lt;div&gt;&lt;font style=&quot;font-size: 14px;&quot;&gt;Note Sync,&lt;/font&gt;&lt;/div&gt;&lt;div&gt;&lt;font style=&quot;font-size: 14px;&quot;&gt;&amp;nbsp;Metronome&amp;nbsp;&lt;/font&gt;&lt;/div&gt;&lt;div&gt;&lt;font size=&quot;3&quot;&gt;Enable&lt;/font&gt;&lt;/div&gt;" style="edgeLabel;html=1;align=center;verticalAlign=middle;resizable=0;points=[];" vertex="1" connectable="0" parent="1">
          <mxGeometry x="480" y="200" as="geometry">
            <mxPoint x="-18" as="offset" />
          </mxGeometry>
        </mxCell>
      </root>
    </mxGraphModel>
  </diagram>
</mxfile>
